<svg width="11" height="32" viewBox="0 0 11 32" fill="none" xmlns="http://www.w3.org/2000/svg">
<path d="M5.46875 26.0312C5.75 26.3125 6.21875 26.3125 6.5 26.0312L10.75 21.7812C11.0625 21.4688 11.0625 21 10.75 20.7188L10.0625 20C9.75 19.7188 9.28125 19.7188 9 20L5.96875 23.0312L2.96875 20C2.6875 19.7188 2.21875 19.7188 1.90625 20L1.21875 20.7188C0.90625 21 0.90625 21.4688 1.21875 21.7812L5.46875 26.0312Z" fill="#BDBDBD"/>
<path d="M6.53125 6C6.21875 5.71875 5.75 5.71875 5.46875 6L1.21875 10.25C0.90625 10.5625 0.90625 11.0312 1.21875 11.3125L1.90625 12.0312C2.21875 12.3125 2.6875 12.3125 2.96875 12.0312L6 9L9 12.0312C9.28125 12.3125 9.78125 12.3125 10.0625 12.0312L10.7812 11.3125C11.0625 11.0312 11.0625 10.5625 10.7812 10.25L6.53125 6Z" fill="#BDBDBD"/>
</svg>
