<svg width="131" height="131" viewBox="0 0 131 131" fill="none" xmlns="http://www.w3.org/2000/svg">
<path d="M124.138 6.07611H6.0752V124.14H124.138V6.07611ZM26.3892 26.5101H29.6502V23.2491H33.0292V26.5101H36.2912V29.8891H33.0292V33.1511H29.6502V29.8891H26.3892V26.5101ZM52.2522 99.5591L41.9762 118.469L52.6272 86.3861L36.3632 57.0731L36.4062 67.9541V98.8251H26.3892V37.0831H36.5352L51.7772 64.6292L61.6212 82.3311V82.3531L56.0512 92.5861L52.2522 99.5591ZM102.297 106.87H92.3962V103.491H102.297V106.87ZM102.371 37.8171V37.9251V99.5591H92.4192L92.5052 68.6881V57.6561L85.4242 70.3721L69.2332 99.5591H62.2382L59.1092 93.9021L89.5692 37.9251L103.824 11.7471L95.4502 37.8171H102.371Z" fill="black"/>
<path d="M0 130.216H130.216V-0.000183105H0V130.216ZM127.288 127.288H2.92799V2.92786H127.288V127.288Z" fill="black"/>
</svg>
