<svg width="177" height="178" viewBox="0 0 177 178" fill="none" xmlns="http://www.w3.org/2000/svg">
<path d="M37.4387 0.242188C16.9952 0.242188 0 16.9826 0 37.662V139.582C0 160.015 16.7489 177.001 37.4387 177.001H139.41C159.853 177.001 176.848 160.261 176.848 139.582V37.662C176.848 17.2288 160.1 0.242188 139.41 0.242188H37.4387Z" fill="url(#paint0_linear_200_665)"/>
<mask id="mask0_200_665" style="mask-type:luminance" maskUnits="userSpaceOnUse" x="0" y="0" width="177" height="177">
<path d="M177 0H0V176.997H177V0Z" fill="white"/>
</mask>
<g mask="url(#mask0_200_665)">
<path d="M59.4229 46.5213C56.8943 43.7399 55.3772 39.6943 55.63 33.6258V26.7988H95.0757C99.6272 26.7988 103.926 27.8102 107.719 29.3274C111.764 31.0973 115.557 33.373 118.591 36.4072C121.626 39.4415 124.154 42.9814 125.924 47.027C127.441 50.8198 128.453 55.1183 128.453 59.6696C128.453 64.221 127.441 68.2666 125.924 72.3123C125.166 73.8294 124.407 75.3465 123.649 76.8636C124.66 77.6222 125.671 78.6336 126.43 79.3921C129.97 82.9321 132.499 86.9777 134.521 91.529C136.291 95.8275 137.303 100.885 137.303 105.942C137.303 111.252 136.291 116.056 134.774 120.354C133.004 124.906 130.223 128.951 126.936 132.238C123.396 135.525 119.35 138.307 114.799 140.077C110.247 141.847 105.443 142.858 100.386 142.858H93.5586H78.1343H55.3772V114.286V108.723C52.3429 107.964 49.5614 106.7 47.5386 104.677C44.2514 101.643 42.4814 97.3446 42.4814 92.5405V78.3807H53.3543C53.1014 78.1279 52.8486 77.875 52.5957 77.6222C50.8257 75.8522 49.5614 73.5765 49.3086 70.7951V70.5423C47.7914 68.5195 46.78 66.2438 46.78 63.7153C46.78 61.1868 47.5386 58.6582 49.3086 56.6354L49.5614 56.3826C49.8143 53.854 50.8257 51.5784 52.5957 49.8084C54.3657 48.0384 56.6414 46.7742 59.4229 46.5213Z" fill="#FEFEFE"/>
<path d="M62.4581 33.6259C62.2052 43.74 66.7566 44.2457 75.3538 44.2457C83.6981 44.2457 86.7323 44.2457 95.0766 44.2457C99.3752 44.2457 103.168 46.0157 106.202 48.797C108.984 51.5784 110.754 55.3712 110.754 59.6697C110.754 63.9682 108.984 67.761 106.202 70.5424C103.674 73.0709 100.387 74.588 96.5938 75.0937C86.9852 75.3465 78.8938 78.3808 72.8252 83.4378C70.5495 85.4606 68.5266 87.7363 66.7566 90.2648C65.2395 87.2306 61.9523 85.2078 57.6538 85.2078H49.0566V92.5405C49.0566 98.1033 52.8495 102.402 59.1709 102.402H62.2052C61.9523 104.425 61.9524 106.195 61.9524 108.217V136.031H70.8024V107.206C70.8024 100.379 73.0781 94.3105 78.3881 90.012C83.1924 85.9663 90.0195 83.6907 97.8581 83.6907H99.1223C105.444 83.9435 111.259 86.2192 115.305 90.2648C119.098 94.0576 121.374 99.3675 121.374 105.942C121.374 112.263 119.098 117.573 115.558 121.113C111.765 124.906 106.202 126.928 100.134 126.928H90.0195V119.09H92.5481C96.3409 119.09 99.8809 117.826 102.409 115.55C104.938 113.274 106.708 109.987 106.708 106.195V94.8162H95.0766C91.2838 94.8162 87.7438 96.0804 85.2152 98.3561C82.6866 100.632 80.9166 103.919 80.9166 107.712V113.022V135.778H99.8809C108.478 135.778 116.064 132.744 121.627 127.181C126.937 121.871 130.224 114.792 130.224 105.689C130.224 96.839 126.937 89.2534 121.374 83.9435C119.098 81.6678 116.317 79.645 113.282 78.1279C118.339 73.3237 121.374 66.2439 121.374 59.4168C121.374 52.337 118.339 45.7628 113.535 40.9586C108.731 36.1544 102.157 33.373 94.8238 33.373H62.4581V33.6259ZM90.0195 107.964C90.0195 106.7 90.5252 105.689 91.2838 104.93C92.2952 104.172 93.5595 103.666 95.3295 103.666H97.8581V106.195C97.8581 107.459 97.3523 108.47 96.5938 109.229C95.5823 109.987 94.3181 110.493 92.5481 110.493H90.0195V107.964Z" fill="url(#paint1_linear_200_665)"/>
<path d="M92.294 53.3496C88.2483 53.3496 85.7197 55.8781 85.7197 59.9238V65.2337H91.2826C95.3283 65.2337 97.8569 62.7052 97.8569 58.6595V53.3496H92.294Z" fill="url(#paint2_linear_200_665)"/>
<path fill-rule="evenodd" clip-rule="evenodd" d="M70.0163 51.8291L71.7863 53.3462L73.5563 53.599C75.5792 53.8519 77.0963 55.369 77.3492 57.3918L77.6021 59.6675L78.8663 61.1846C80.1306 62.7017 80.1306 64.9774 78.8663 66.4945L77.3492 68.2645L77.0963 70.0344C76.8435 72.0572 75.3263 73.5744 73.5563 73.8272L71.2806 74.0801L69.7635 75.3443C68.2463 76.6086 65.9706 76.6086 64.4535 75.3443L62.6835 73.8272L60.9135 73.5744C58.8906 73.3215 57.3735 71.8044 57.1206 69.7816L56.8678 67.5059L55.6035 65.9888C54.3392 64.4717 54.3392 62.196 55.6035 60.6789L57.1206 58.9089L57.3735 57.139C57.6263 55.1161 59.1435 53.599 60.9135 53.3462L63.1892 53.0933L64.7063 51.8291C66.2235 50.5648 68.4992 50.5648 70.0163 51.8291ZM67.2349 59.4146C69.5106 59.4146 71.5335 61.4374 71.5335 63.7131C71.5335 66.2416 69.5106 68.0116 67.2349 68.0116C64.9592 68.0116 62.9363 65.9888 62.9363 63.7131C62.9363 61.1846 64.9592 59.4146 67.2349 59.4146Z" fill="#FA004B"/>
</g>
<defs>
<linearGradient id="paint0_linear_200_665" x1="23.2203" y1="23.1234" x2="193.656" y2="194.51" gradientUnits="userSpaceOnUse">
<stop stop-color="#FFED00"/>
<stop offset="0.00042982" stop-color="#FFED00"/>
<stop offset="1" stop-color="#FCB01C"/>
</linearGradient>
<linearGradient id="paint1_linear_200_665" x1="108.181" y1="50.6484" x2="75.9747" y2="113.594" gradientUnits="userSpaceOnUse">
<stop stop-color="#16BB63"/>
<stop offset="0.00574678" stop-color="#16BB63"/>
<stop offset="1" stop-color="#109576"/>
</linearGradient>
<linearGradient id="paint2_linear_200_665" x1="95.8267" y1="56.0789" x2="74.0011" y2="73.8015" gradientUnits="userSpaceOnUse">
<stop stop-color="#16BB63"/>
<stop offset="0.00574678" stop-color="#16BB63"/>
<stop offset="1" stop-color="#109576"/>
</linearGradient>
</defs>
</svg>
