<svg width="131" height="131" viewBox="0 0 131 131" fill="none" xmlns="http://www.w3.org/2000/svg">
<rect width="130" height="130" fill="white"/>
<path d="M124.138 6.0766H6.0752V124.141H124.138V6.0766ZM52.2522 99.5596L41.9762 118.47L52.6272 86.3866L36.3632 57.0736L36.4062 67.9546V98.8256H26.3892V37.0836H36.5352L51.7772 64.6296L61.6212 82.3316V82.3536L56.0512 92.5866L52.2522 99.5596ZM102.297 106.871H92.3962V103.492H102.297V106.871ZM102.371 37.8176V37.9256V99.5596H92.4192L92.5052 68.6886V57.6566L85.4242 70.3726L69.2332 99.5596H62.2382L59.1092 93.9026L89.5692 37.9256L103.824 11.7476L95.4502 37.8176H102.371Z" fill="#2161F3"/>
<path d="M0 130.216H130.216V0.000305176H0V130.216ZM127.288 127.288H2.92799V2.92834H127.288V127.288Z" fill="#2161F3"/>
<path d="M34.0026 20.2948C34.867 21.1226 35.2991 22.1574 35.2991 23.3991C35.2991 24.6409 34.867 25.6817 34.0026 26.5217C33.1383 27.3496 32.0548 27.7635 30.7522 27.7635H29.0904V32H26.4426V19.0348H30.7522C32.0548 19.0348 33.1383 19.4548 34.0026 20.2948ZM32.1765 24.7504C32.5417 24.3974 32.7243 23.947 32.7243 23.3991C32.7243 22.8513 32.5417 22.4009 32.1765 22.0478C31.8113 21.6948 31.3243 21.5183 30.7157 21.5183H29.0904V25.28H30.7157C31.3243 25.28 31.8113 25.1035 32.1765 24.7504ZM40.2993 28.4574C41.0906 29.2609 42.0463 29.6626 43.1663 29.6626C44.2863 29.6626 45.2358 29.2609 46.015 28.4574C46.8063 27.6417 47.2019 26.6617 47.2019 25.5174C47.2019 24.373 46.8063 23.3991 46.015 22.5957C45.2358 21.78 44.2863 21.3722 43.1663 21.3722C42.0463 21.3722 41.0906 21.78 40.2993 22.5957C39.5202 23.3991 39.1306 24.373 39.1306 25.5174C39.1306 26.6617 39.5202 27.6417 40.2993 28.4574ZM47.8959 30.2652C46.5932 31.5678 45.0167 32.2191 43.1663 32.2191C41.3158 32.2191 39.7332 31.5678 38.4185 30.2652C37.1158 28.9504 36.4645 27.3678 36.4645 25.5174C36.4645 23.667 37.1158 22.0904 38.4185 20.7878C39.7332 19.473 41.3158 18.8157 43.1663 18.8157C45.0167 18.8157 46.5932 19.473 47.8959 20.7878C49.2106 22.0904 49.868 23.667 49.868 25.5174C49.868 27.3678 49.2106 28.9504 47.8959 30.2652ZM55.6701 32.2191C54.6475 32.2191 53.7162 32.0183 52.8762 31.6165C52.0484 31.2026 51.4032 30.6304 50.9406 29.9L52.9675 28.2017C53.284 28.6765 53.6919 29.0539 54.191 29.3339C54.7023 29.6017 55.2319 29.7357 55.7797 29.7357C56.3032 29.7357 56.7232 29.62 57.0397 29.3887C57.3562 29.1574 57.5145 28.853 57.5145 28.4757C57.5145 28.1104 57.3745 27.7939 57.0945 27.5261C56.8145 27.2583 56.3519 27.0148 55.7067 26.7957L54.611 26.4122C52.4806 25.6696 51.4153 24.4339 51.4153 22.7052C51.4153 21.5122 51.8232 20.5687 52.6388 19.8748C53.4545 19.1687 54.5075 18.8157 55.798 18.8157C57.4536 18.8157 58.8171 19.4122 59.8884 20.6052L58.1353 22.413C57.5145 21.6704 56.7414 21.2991 55.8162 21.2991C55.3414 21.2991 54.9336 21.4026 54.5927 21.6096C54.2519 21.8043 54.0814 22.0843 54.0814 22.4496C54.0814 22.827 54.2275 23.1252 54.5197 23.3443C54.824 23.5635 55.3475 23.807 56.0901 24.0748L57.131 24.4583C59.1884 25.2252 60.2171 26.5096 60.2171 28.3113C60.2171 29.4678 59.791 30.4113 58.9388 31.1417C58.0988 31.86 57.0093 32.2191 55.6701 32.2191Z" fill="white"/>
</svg>
