<svg width="131" height="131" viewBox="0 0 131 131" fill="none" xmlns="http://www.w3.org/2000/svg">
<rect width="130" height="130" fill="white"/>
<path d="M130 4.48817e-07H0V130H130V4.48817e-07ZM50.8458 102.934L39.5309 123.756L51.2588 88.4291L33.3503 56.1527L33.3977 68.1337V102.126H22.3679V34.1418H33.5397L50.3228 64.4726L61.1621 83.9642V83.9885L55.0289 95.256L50.8458 102.934ZM105.951 110.984H95.0487V107.263H105.951V110.984ZM106.032 34.95V35.0689V102.934H95.074L95.1687 68.9419V56.7946L87.3718 70.7962L69.5437 102.934H61.8415L58.3961 96.705L91.9358 35.0689L107.632 6.24435L98.4115 34.95H106.032Z" fill="#2161F3"/>
<path d="M0 130.216H130.216V0.000305176H0V130.216ZM127.288 127.288H2.92799V2.92834H127.288V127.288Z" fill="#2161F3"/>
<path d="M30.0209 17.313C30.8974 18.1652 31.3357 19.2183 31.3357 20.4722C31.3357 21.7261 30.8974 22.7791 30.0209 23.6313C29.1565 24.4713 28.073 24.8913 26.7704 24.8913H25.273V29H22.3696V16.0348H26.7704C28.073 16.0348 29.1565 16.4609 30.0209 17.313ZM28.5235 20.4722C28.5235 19.9852 28.353 19.5835 28.0122 19.267C27.6835 18.9383 27.2574 18.7739 26.7339 18.7739H25.273V22.1704H26.7339C27.2452 22.1704 27.6713 22.0061 28.0122 21.6774C28.353 21.3487 28.5235 20.947 28.5235 20.4722ZM36.4811 25.2565C37.2237 26.0235 38.1185 26.407 39.1654 26.407C40.2124 26.407 41.1011 26.0235 41.8315 25.2565C42.562 24.4896 42.9272 23.5765 42.9272 22.5174C42.9272 21.4583 42.562 20.5452 41.8315 19.7783C41.1011 19.0113 40.2124 18.6278 39.1654 18.6278C38.1185 18.6278 37.2237 19.0113 36.4811 19.7783C35.7506 20.5452 35.3854 21.4583 35.3854 22.5174C35.3854 23.5765 35.7506 24.4896 36.4811 25.2565ZM43.895 27.247C42.5924 28.5617 41.0159 29.2191 39.1654 29.2191C37.315 29.2191 35.7324 28.5678 34.4176 27.2652C33.115 25.9504 32.4637 24.3678 32.4637 22.5174C32.4637 20.667 33.115 19.0904 34.4176 17.7878C35.7324 16.473 37.315 15.8157 39.1654 15.8157C41.0159 15.8157 42.5924 16.473 43.895 17.7878C45.2098 19.1026 45.8672 20.6791 45.8672 22.5174C45.8672 24.3557 45.2098 25.9322 43.895 27.247ZM51.6349 29.2191C50.6123 29.2191 49.681 29.0183 48.841 28.6165C48.0132 28.2026 47.3436 27.6304 46.8323 26.9L49.0601 25.0191C49.3766 25.4696 49.7784 25.8287 50.2653 26.0965C50.7645 26.3643 51.2575 26.4983 51.7445 26.4983C52.2192 26.4983 52.5966 26.4009 52.8766 26.2061C53.1688 25.9991 53.3149 25.7374 53.3149 25.4209C53.3149 25.0922 53.1749 24.8061 52.8949 24.5626C52.6149 24.3191 52.1523 24.0878 51.5071 23.8687L50.594 23.5583C48.4149 22.8278 47.3253 21.58 47.3253 19.8148C47.3253 18.5852 47.7392 17.6113 48.5671 16.893C49.4071 16.1748 50.4845 15.8157 51.7992 15.8157C53.4792 15.8157 54.8732 16.4122 55.981 17.6052L54.0818 19.6139C53.4853 18.8957 52.7366 18.5365 51.8358 18.5365C51.4097 18.5365 51.0384 18.6217 50.7218 18.7922C50.4175 18.9626 50.2653 19.2061 50.2653 19.5226C50.2653 19.8513 50.4114 20.1191 50.7036 20.3261C50.9958 20.5209 51.5192 20.7522 52.274 21.02L53.1871 21.3487C55.2566 22.0913 56.2853 23.3817 56.2732 25.22C56.2732 26.4009 55.8349 27.3626 54.9584 28.1052C54.094 28.8478 52.9862 29.2191 51.6349 29.2191Z" fill="white"/>
</svg>
