<svg width="563" height="131" viewBox="0 0 563 131" fill="none" xmlns="http://www.w3.org/2000/svg">
<path d="M219.856 44.5937L208.885 64.3657L197.92 44.6037L183.074 17.6177H172.972V78.0967H182.714L182.627 47.8567V37.0507L189.575 49.5107L205.42 78.0967H212.273L234.947 37.1957L234.914 47.8567V78.0967H244.721V17.6177H234.779L219.856 44.5937Z" fill="black"/>
<path d="M285.588 17.6221L250.351 78.0981H261.536L271.112 61.6081H307.28L316.781 78.0981H328.056L292.804 17.6221H285.588ZM276.629 52.1071L277.395 50.7841L289.166 30.3701L301.778 52.1071H276.629Z" fill="black"/>
<path d="M396.614 46.3648H360.4V55.8658H385.7C382.153 64.1788 372.682 69.5148 360.821 69.5148C345.322 69.5148 334.484 60.6458 334.484 47.9278C334.484 35.1348 345.412 26.2058 361.062 26.2058C371.148 26.2058 379.446 30.0688 383.866 36.3378H387.91H391.262H394.99C390.03 24.3118 377.207 16.6148 361.062 16.6148C339.941 16.6148 324.607 29.7838 324.607 47.9278C324.607 65.9828 339.775 79.0908 360.671 79.0908C371.148 79.0908 380.484 75.6788 386.933 69.8008V78.0988H396.659V67.9968H396.614V46.3648Z" fill="black"/>
<path d="M458.126 46.1707V62.8017L440.333 43.9137L415.635 17.6177H407.072V78.0967H416.813L416.675 32.9607L459.063 78.0967H467.78V17.6177H458.039L458.126 46.1707Z" fill="black"/>
<path d="M477.457 78.0972H487.263V17.6182H477.457V78.0972Z" fill="black"/>
<path d="M495.528 17.6177V27.1187H524.275V78.0967H534.158V27.1187H562.983V17.6177H495.528Z" fill="black"/>
<path d="M124.138 6.07611H6.0752V124.14H124.138V6.07611ZM26.3892 26.5101H29.6502V23.2491H33.0292V26.5101H36.2912V29.8891H33.0292V33.1511H29.6502V29.8891H26.3892V26.5101ZM52.2522 99.5591L41.9762 118.469L52.6272 86.3861L36.3632 57.0731L36.4062 67.9541V98.8251H26.3892V37.0831H36.5352L51.7772 64.6292L61.6212 82.3311V82.3531L56.0512 92.5861L52.2522 99.5591ZM102.297 106.87H92.3962V103.491H102.297V106.87ZM102.371 37.8171V37.9251V99.5591H92.4192L92.5052 68.6881V57.6561L85.4242 70.3721L69.2332 99.5591H62.2382L59.1092 93.9021L89.5692 37.9251L103.824 11.7471L95.4502 37.8171H102.371Z" fill="black"/>
<path d="M0 130.216H130.216V-0.000183105H0V130.216ZM127.288 127.288H2.92799V2.92786H127.288V127.288Z" fill="black"/>
<path d="M175.632 98.12H178.012L185.376 108.032L192.796 98.12H195.148V118H192.572V102.544L185.404 112.176L178.236 102.544V118H175.632V98.12ZM203.969 118L212.761 98.12H214.917L223.737 118H221.021L218.445 112.204H209.177L206.657 118H203.969ZM213.797 101.648L210.213 109.852H217.409L213.797 101.648ZM249.47 118H247.23L235.134 102.516V118H232.53V98.12H234.798L246.894 113.604V98.12H249.47V118ZM258.297 118L267.089 98.12H269.245L278.065 118H275.349L272.773 112.204H263.505L260.985 118H258.297ZM268.125 101.648L264.541 109.852H271.737L268.125 101.648ZM295.609 118.336C292.492 118.336 289.925 117.356 287.909 115.396C285.912 113.436 284.913 110.991 284.913 108.06C284.913 105.167 285.902 102.731 287.881 100.752C289.86 98.7733 292.324 97.784 295.273 97.784C298.316 97.784 300.808 98.708 302.749 100.556L301.013 102.432C299.426 100.976 297.513 100.248 295.273 100.248C293.033 100.248 291.176 101.004 289.701 102.516C288.245 104.009 287.517 105.857 287.517 108.06C287.517 110.3 288.254 112.167 289.729 113.66C291.222 115.135 293.182 115.872 295.609 115.872C297.886 115.872 299.65 115.377 300.901 114.388V109.068H295.273V106.632H303.421V115.536C302.544 116.451 301.414 117.151 300.033 117.636C298.652 118.103 297.177 118.336 295.609 118.336ZM313.667 118V98.12H325.259V100.584H316.271V106.604H323.579V109.068H316.271V115.536H325.259V118H313.667ZM335.253 98.12H337.633L344.997 108.032L352.417 98.12H354.769V118H352.193V102.544L345.025 112.176L337.857 102.544V118H335.253V98.12ZM366.054 118V98.12H377.646V100.584H368.658V106.604H375.966V109.068H368.658V115.536H377.646V118H366.054ZM404.58 118H402.34L390.244 102.516V118H387.64V98.12H389.908L402.004 113.604V98.12H404.58V118ZM419.902 118V100.584H413.714V98.12H428.638V100.584H422.45V118H419.902Z" fill="black"/>
</svg>
