<svg width="563" height="131" viewBox="0 0 563 131" fill="none" xmlns="http://www.w3.org/2000/svg">
<path d="M219.856 69.5937L208.885 89.3657L197.92 69.6037L183.074 42.6177H172.972V103.097H182.714L182.627 72.8567V62.0507L189.575 74.5107L205.42 103.097H212.273L234.947 62.1957L234.914 72.8567V103.097H244.721V42.6177H234.779L219.856 69.5937Z" fill="black"/>
<path d="M285.588 42.6221L250.351 103.098H261.536L271.112 86.6081H307.28L316.781 103.098H328.056L292.804 42.6221H285.588ZM276.629 77.1071L277.395 75.7841L289.166 55.3701L301.778 77.1071H276.629Z" fill="black"/>
<path d="M396.614 71.3648H360.4V80.8658H385.7C382.153 89.1788 372.682 94.5148 360.821 94.5148C345.322 94.5148 334.484 85.6458 334.484 72.9278C334.484 60.1348 345.412 51.2058 361.062 51.2058C371.148 51.2058 379.446 55.0688 383.866 61.3378H387.91H391.262H394.99C390.03 49.3118 377.207 41.6148 361.062 41.6148C339.941 41.6148 324.607 54.7838 324.607 72.9278C324.607 90.9828 339.775 104.091 360.671 104.091C371.148 104.091 380.484 100.679 386.933 94.8008V103.099H396.659V92.9968H396.614V71.3648Z" fill="black"/>
<path d="M458.126 71.1707V87.8017L440.333 68.9137L415.635 42.6177H407.072V103.097H416.813L416.675 57.9607L459.063 103.097H467.78V42.6177H458.039L458.126 71.1707Z" fill="black"/>
<path d="M477.457 103.097H487.263V42.6182H477.457V103.097Z" fill="black"/>
<path d="M495.528 42.6177V52.1187H524.275V103.097H534.158V52.1187H562.983V42.6177H495.528Z" fill="black"/>
<path d="M124.138 6.07611H6.0752V124.14H124.138V6.07611ZM26.3892 26.5101H29.6502V23.2491H33.0292V26.5101H36.2912V29.8891H33.0292V33.1511H29.6502V29.8891H26.3892V26.5101ZM52.2522 99.5591L41.9762 118.469L52.6272 86.3861L36.3632 57.0731L36.4062 67.9541V98.8251H26.3892V37.0831H36.5352L51.7772 64.6292L61.6212 82.3311V82.3531L56.0512 92.5861L52.2522 99.5591ZM102.297 106.87H92.3962V103.491H102.297V106.87ZM102.371 37.8171V37.9251V99.5591H92.4192L92.5052 68.6881V57.6561L85.4242 70.3721L69.2332 99.5591H62.2382L59.1092 93.9021L89.5692 37.9251L103.824 11.7471L95.4502 37.8171H102.371Z" fill="black"/>
<path d="M0 130.216H130.216V-0.000183105H0V130.216ZM127.288 127.288H2.92799V2.92786H127.288V127.288Z" fill="black"/>
</svg>
