<svg width="281" height="201" viewBox="0 0 281 201" fill="none" xmlns="http://www.w3.org/2000/svg">
<path fill-rule="evenodd" clip-rule="evenodd" d="M80 0C35.8172 0 0 40.0258 0 85C0 129.622 25.5332 178.124 65.3707 196.744C74.6574 201.085 85.3426 201.085 94.6293 196.744C134.467 178.124 160 129.622 160 85C160 40.0258 124.183 0 80 0ZM80 100C91.0457 100 100 91.0457 100 80C100 68.9543 91.0457 60 80 60C68.9543 60 60 68.9543 60 80C60 91.0457 68.9543 100 80 100Z" fill="#FA004B"/>
<g clip-path="url(#clip0_1008_66)">
<rect x="23.8516" y="21.8349" width="113.395" height="113.395" rx="56.6973" fill="white"/>
</g>
<path d="M96.7134 96.078C95.6782 96.078 94.6854 95.6648 93.9534 94.9292C93.2214 94.1937 92.8102 93.1961 92.8102 92.156C92.8102 91.1158 93.2214 90.1182 93.9534 89.3827C94.6854 88.6472 95.6782 88.2339 96.7134 88.2339C97.7486 88.2339 98.7414 88.6472 99.4734 89.3827C100.205 90.1182 100.617 91.1158 100.617 92.156C100.617 93.1961 100.205 94.1937 99.4734 94.9292C98.7414 95.6648 97.7486 96.078 96.7134 96.078ZM100.617 72.5459L105.717 79.0826H94.1113V72.5459M65.4874 96.078C64.4522 96.078 63.4594 95.6648 62.7274 94.9292C61.9954 94.1937 61.5842 93.1961 61.5842 92.156C61.5842 91.1158 61.9954 90.1182 62.7274 89.3827C63.4594 88.6472 64.4522 88.2339 65.4874 88.2339C66.5226 88.2339 67.5154 88.6472 68.2474 89.3827C68.9794 90.1182 69.3907 91.1158 69.3907 92.156C69.3907 93.1961 68.9794 94.1937 68.2474 94.9292C67.5154 95.6648 66.5226 96.078 65.4874 96.078ZM101.918 68.6238H94.1113V58.1651H57.6809C54.7925 58.1651 52.4766 60.4922 52.4766 63.3945V92.156H57.6809C57.6809 94.2363 58.5034 96.2315 59.9674 97.7025C61.4314 99.1736 63.417 100 65.4874 100C67.5578 100 69.5434 99.1736 71.0074 97.7025C72.4714 96.2315 73.2939 94.2363 73.2939 92.156H88.9069C88.9069 94.2363 89.7294 96.2315 91.1934 97.7025C92.6574 99.1736 94.643 100 96.7134 100C98.7838 100 100.769 99.1736 102.233 97.7025C103.697 96.2315 104.52 94.2363 104.52 92.156H109.724V79.0826L101.918 68.6238Z" fill="#FA004B"/>
<defs>
<clipPath id="clip0_1008_66">
<rect x="23.8516" y="21.8349" width="113.395" height="113.395" rx="56.6973" fill="white"/>
</clipPath>
</defs>
</svg>
