<svg width="291" height="201" viewBox="0 0 291 201" fill="none" xmlns="http://www.w3.org/2000/svg">
<path fill-rule="evenodd" clip-rule="evenodd" d="M80.666 0.833328C36.4832 0.833328 0.666016 40.8592 0.666016 85.8333C0.666016 130.455 26.1993 178.957 66.0367 197.578C75.3234 201.919 86.0086 201.919 95.2954 197.578C135.133 178.957 160.666 130.455 160.666 85.8333C160.666 40.8592 124.849 0.833328 80.666 0.833328ZM80.666 100.833C91.7117 100.833 100.666 91.879 100.666 80.8333C100.666 69.7876 91.7117 60.8333 80.666 60.8333C69.6203 60.8333 60.666 69.7876 60.666 80.8333C60.666 91.879 69.6203 100.833 80.666 100.833Z" fill="#FECD10"/>
<g clip-path="url(#clip0_1008_135)">
<rect x="24.5176" y="22.6682" width="113.395" height="113.395" rx="56.6973" fill="white"/>
</g>
<g clip-path="url(#clip1_1008_135)">
<rect x="29" y="26" width="103" height="103" rx="51.5" fill="white"/>
<path d="M65.322 45.5605C65.2254 51.4943 67.8477 51.7551 72.8756 51.7551C77.6658 51.7551 79.5217 51.7943 84.3514 51.7943C86.8623 51.7943 89.1292 52.7933 90.7672 54.4105C92.3978 56.0191 93.4068 58.2545 93.4068 60.7287C93.4068 63.2028 92.3978 65.4359 90.7672 67.0457C89.31 68.483 87.355 69.433 85.1748 69.6252C79.6455 69.7721 74.8293 71.4786 71.2784 74.4596C69.9054 75.6129 68.7243 76.9509 67.7722 78.4543C66.8647 76.7012 65.0286 75.548 62.4707 75.548H57.4824V79.8194C57.4824 83.0305 59.6813 85.5059 63.429 85.5059H65.2106C65.0422 86.6738 64.9939 87.7646 64.9939 88.908V105.091H70.1852V88.4404C70.1852 84.5326 71.5706 80.9334 74.625 78.3686C77.4033 76.0364 81.3441 74.7486 85.961 74.7486H86.6642C90.3227 74.8502 93.6656 76.2507 96.0415 78.6245C98.2601 80.8428 99.6394 83.9499 99.6394 87.6813C99.6394 91.3993 98.3381 94.4109 96.2222 96.5031C93.9788 98.7215 90.787 99.958 87.2238 99.958L81.3825 99.9665V95.4087H82.9115C85.1364 95.4087 87.1891 94.6484 88.6909 93.3018C90.1977 91.9502 91.1275 90.0637 91.1275 87.805V81.1635H84.4133C82.1873 81.1635 80.1357 81.925 78.6339 83.2704C77.1272 84.622 76.1974 86.5086 76.1974 88.766L76.19 91.8437V105.07L87.2238 105.091C92.1774 105.091 96.6717 103.317 99.8919 100.133C102.951 97.1079 104.831 92.8525 104.831 87.6813C104.831 82.5212 102.867 78.1703 99.7112 75.0155C98.3419 73.648 96.7497 72.5143 94.999 71.6439C98.0039 68.8563 99.7112 64.7894 99.7112 60.7287C99.7112 56.5479 97.9865 52.7541 95.1996 50.002C92.4188 47.2585 88.5832 45.5605 84.3514 45.5605H65.322ZM81.3887 88.766C81.3887 88.0376 81.6611 87.4549 82.1018 87.0607C82.6453 86.5722 83.4662 86.2968 84.4133 86.2968H85.9362V87.805C85.9362 88.5334 85.6638 89.1174 85.223 89.5128C84.6795 90 83.8587 90.2755 82.9115 90.2755H81.3887V88.766Z" fill="url(#paint0_linear_1008_135)"/>
<path d="M82.7748 57.0938C80.3692 57.0938 78.959 58.569 78.959 60.8583V63.9067H82.1595C84.5638 63.9067 85.9752 62.4302 85.9752 60.1409V57.0938H82.7748Z" fill="url(#paint1_linear_1008_135)"/>
<path fill-rule="evenodd" clip-rule="evenodd" d="M62.6671 56.2263L63.7256 57.1041L64.801 57.1836C65.9535 57.2706 66.8615 58.1667 66.9783 59.3358L67.1168 60.7168L67.8212 61.5468C68.5763 62.4368 68.5944 63.7222 67.8646 64.6331L67.0012 65.7092L66.9229 66.8024C66.8374 67.9752 65.9559 68.8958 64.8058 69.0158L63.4475 69.1566L62.631 69.8728C61.7555 70.6404 60.491 70.6587 59.5951 69.9169L58.5366 69.0391L57.4612 68.9595C56.3075 68.8726 55.4007 67.9764 55.2827 66.8073L55.1442 65.4264L54.441 64.5963C53.6847 63.7063 53.6666 62.4209 54.3976 61.5101L55.2598 60.434L55.3393 59.3407C55.4236 58.1679 56.3051 57.2461 57.4564 57.1273L58.8147 56.9865L59.63 56.2704C60.5067 55.5028 61.7712 55.4844 62.6671 56.2263ZM61.1305 60.5307C62.5118 60.5307 63.6305 61.668 63.6305 63.0722C63.6305 64.4751 62.5118 65.6125 61.1305 65.6125C59.7504 65.6125 58.6317 64.4751 58.6317 63.0722C58.6317 61.668 59.7504 60.5307 61.1305 60.5307Z" fill="#FA004B"/>
</g>
<defs>
<linearGradient id="paint0_linear_1008_135" x1="91.6304" y1="55.3125" x2="72.888" y2="91.9424" gradientUnits="userSpaceOnUse">
<stop stop-color="#16BB63"/>
<stop offset="0.00574678" stop-color="#16BB63"/>
<stop offset="1" stop-color="#109576"/>
</linearGradient>
<linearGradient id="paint1_linear_1008_135" x1="84.7834" y1="58.6609" x2="72.0825" y2="68.9739" gradientUnits="userSpaceOnUse">
<stop stop-color="#16BB63"/>
<stop offset="0.00574678" stop-color="#16BB63"/>
<stop offset="1" stop-color="#109576"/>
</linearGradient>
<clipPath id="clip0_1008_135">
<rect x="24.5176" y="22.6682" width="113.395" height="113.395" rx="56.6973" fill="white"/>
</clipPath>
<clipPath id="clip1_1008_135">
<rect x="29" y="26" width="103" height="103" rx="51.5" fill="white"/>
</clipPath>
</defs>
</svg>
