<svg width="281" height="201" viewBox="0 0 281 201" fill="none" xmlns="http://www.w3.org/2000/svg">
<path fill-rule="evenodd" clip-rule="evenodd" d="M80.666 0.833328C36.4832 0.833328 0.666016 40.8592 0.666016 85.8333C0.666016 130.455 26.1993 178.957 66.0367 197.578C75.3234 201.919 86.0086 201.919 95.2954 197.578C135.133 178.957 160.666 130.455 160.666 85.8333C160.666 40.8592 124.849 0.833328 80.666 0.833328ZM80.666 100.833C91.7117 100.833 100.666 91.879 100.666 80.8333C100.666 69.7876 91.7117 60.8333 80.666 60.8333C69.6203 60.8333 60.666 69.7876 60.666 80.8333C60.666 91.879 69.6203 100.833 80.666 100.833Z" fill="#119676"/>
<g clip-path="url(#clip0_1008_99)">
<rect x="24.5176" y="22.6682" width="113.395" height="113.395" rx="56.6973" fill="white"/>
</g>
<path fill-rule="evenodd" clip-rule="evenodd" d="M69.4063 62.7128L69.4063 59.75C69.4063 53.6231 74.3731 48.6562 80.5 48.6562C86.627 48.6562 91.5938 53.6231 91.5938 59.75V62.7083L91.5938 62.7128C99.535 62.7486 103.754 63.0698 106.121 65.9567C108.784 69.205 107.802 74.1165 105.837 83.9394L104.062 92.8144C102.696 99.6449 102.013 103.06 99.5592 105.072C97.1055 107.083 93.6226 107.083 86.6568 107.083H74.3432C67.3774 107.083 63.8945 107.083 61.4408 105.072C58.987 103.06 58.304 99.6449 56.9379 92.8144L55.1629 83.9394C53.1983 74.1165 52.216 69.205 54.879 65.9567C57.2457 63.0698 61.465 62.7486 69.4063 62.7128ZM73.8438 59.75C73.8438 56.0739 76.8239 53.0938 80.5 53.0938C84.1762 53.0938 87.1563 56.0739 87.1563 59.75V62.7083H73.8438V59.75ZM89.375 74.5417C91.0088 74.5417 92.3333 73.2172 92.3333 71.5833C92.3333 69.9495 91.0088 68.625 89.375 68.625C87.7411 68.625 86.4166 69.9495 86.4166 71.5833C86.4166 73.2172 87.7411 74.5417 89.375 74.5417ZM74.5833 71.5833C74.5833 73.2172 73.2588 74.5417 71.625 74.5417C69.9911 74.5417 68.6666 73.2172 68.6666 71.5833C68.6666 69.9495 69.9911 68.625 71.625 68.625C73.2588 68.625 74.5833 69.9495 74.5833 71.5833Z" fill="#119676"/>
<defs>
<clipPath id="clip0_1008_99">
<rect x="24.5176" y="22.6682" width="113.395" height="113.395" rx="56.6973" fill="white"/>
</clipPath>
</defs>
</svg>
